<?xml version="1.0" encoding="UTF-8" standalone="no"?>
<!-- Created using Krita: https://krita.org -->

<svg
   width="737.28pt"
   height="737.28pt"
   viewBox="0 0 737.28 737.28"
   version="1.1"
   id="svg1"
   sodipodi:docname="ltm-labs-light.svg"
   inkscape:version="1.3.2 (091e20e, 2023-11-25, custom)"
   inkscape:export-filename="ltm-labs-light.png"
   inkscape:export-xdpi="99.999992"
   inkscape:export-ydpi="99.999992"
   xmlns:inkscape="http://www.inkscape.org/namespaces/inkscape"
   xmlns:sodipodi="http://sodipodi.sourceforge.net/DTD/sodipodi-0.dtd"
   xmlns="http://www.w3.org/2000/svg"
   xmlns:svg="http://www.w3.org/2000/svg">
  <sodipodi:namedview
     id="namedview1"
     pagecolor="#505050"
     bordercolor="#ffffff"
     borderopacity="1"
     inkscape:showpageshadow="0"
     inkscape:pageopacity="0"
     inkscape:pagecheckerboard="1"
     inkscape:deskcolor="#505050"
     inkscape:document-units="pt"
     inkscape:zoom="0.98976531"
     inkscape:cx="373.32082"
     inkscape:cy="499.10822"
     inkscape:window-width="2880"
     inkscape:window-height="1676"
     inkscape:window-x="-12"
     inkscape:window-y="-12"
     inkscape:window-maximized="1"
     inkscape:current-layer="svg1" />
  <defs
     id="defs1" />
  <path
     id="shape0"
     fill="#ffffff"
     stroke-opacity="0"
     stroke="#000000"
     stroke-width="0"
     stroke-linecap="square"
     stroke-linejoin="bevel"
     d="M1024 512C1024 229.23 794.77 1.73141e-14 512 0C229.23 -1.73141e-14 3.46282e-14 229.23 0 512C-3.46282e-14 794.77 229.23 1024 512 1024C794.77 1024 1024 794.77 1024 512Z"
     sodipodi:nodetypes="ccccc"
     transform="matrix(0.719999971389772 0 0 0.719999971389772 1.46484369452082e-05 1.46484369594191e-05)" />
  <path
     id="shape01"
     fill="#000000"
     stroke-opacity="0"
     stroke="#000000"
     stroke-width="0"
     stroke-linecap="square"
     stroke-linejoin="bevel"
     d="m 291.3383,129.085 c 0.083,-1.3124 -0.0925,-2.6282 -0.52177,-3.87084 -0.56879,-1.59569 -1.55027,-3.01217 -2.8447,-4.10499 -1.29411,-1.09263 -2.85545,-1.82296 -4.52375,-2.1157 -1.6684,-0.2933 -3.38415,-0.13862 -4.97371,0.44734 -48.72147,17.63433 -91.21731,49.1808 -122.20171,90.71561 -30.98428,41.5353 -49.11692,91.26195 -52.14261,142.99484 -2.31155,37.76118 3.57381,75.57871 17.25305,110.85013 0.91331,2.39039 2.74074,4.32148 5.07653,5.3657 2.33571,1.04398 4.9934,1.11732 7.38304,0.20327 2.38963,-0.91319 4.32066,-2.74111 5.36442,-5.07721 1.04382,-2.33617 1.11696,-4.99406 0.20367,-7.38437 -15.70442,-40.77501 -20.26016,-85.00936 -13.19616,-128.12967 7.06417,-43.1204 25.4958,-83.58804 53.38967,-117.21863 27.8936,-33.63022 64.25385,-59.22335 105.32057,-74.13259 1.79621,-0.62653 3.36561,-1.77381 4.5069,-3.29485 1.14206,-1.52116 1.80599,-3.34853 1.90656,-5.24804 z m 243.28791,38.33782 c 0.0923,-1.5612 -0.19626,-3.12182 -0.84314,-4.54533 -0.64833,-1.42347 -1.63426,-2.66707 -2.87312,-3.62171 -42.18191,-32.86329 -93.39053,-52.10357 -146.77307,-55.14609 -21.06289,-1.24979 -42.19944,-0.004 -62.96699,3.72098 -2.05465,0.31867 -3.95277,1.29167 -5.41047,2.77384 -1.45853,1.48214 -2.39997,3.39604 -2.68593,5.45574 -0.28473,2.05969 0.10233,4.15766 1.10203,5.98042 1.00096,1.82251 2.56305,3.27491 4.45328,4.13978 1.89134,0.86532 4.01049,1.09752 6.04416,0.66295 19.24326,-3.4252 38.82125,-4.58464 58.33427,-3.45477 49.51954,2.82242 97.02826,20.64062 136.19319,51.07926 1.33162,1.04385 2.91634,1.71872 4.59182,1.95645 1.67554,0.23773 3.38356,0.0299 4.95373,-0.6023 1.56992,-0.63211 2.94554,-1.66679 3.98944,-2.9993 1.12126,-1.58844 1.77607,-3.45905 1.8908,-5.39992 z m 98.51515,216.73556 c 2.15268,-34.91489 -2.67898,-69.91266 -14.21309,-102.93751 -11.53317,-33.02492 -29.53985,-63.41938 -52.96067,-89.39982 -1.70048,-1.90928 -4.09168,-3.06624 -6.64318,-3.21401 -2.55241,-0.14857 -5.06078,0.72534 -6.96991,2.42581 -1.9091,1.70019 -3.06578,4.09192 -3.21337,6.64423 -0.14853,2.55232 0.72476,5.06173 2.42492,6.97098 37.38015,41.75058 59.3922,95.05125 62.36477,151.0158 2.97244,55.96371 -13.26869,111.29746 -46.01588,156.77374 -26.59397,36.73863 -62.77666,65.47184 -104.58156,83.04921 -2.34799,0.98754 -4.21009,2.86959 -5.17187,5.22862 -0.96291,2.35907 -0.94904,5.00569 0.0384,7.35431 0.98731,2.34855 2.86903,4.2109 5.22684,5.1738 2.35873,0.96199 5.006,0.94819 7.35416,-0.0393 45.79498,-19.13007 85.30579,-50.75183 114.00867,-91.24435 28.70289,-40.49266 45.46012,-88.2492 48.35169,-137.80143 z m -197.24019,233.9041 c 0.0644,-0.91024 -0.0244,-1.82547 -0.27344,-2.70411 -0.38001,-1.65632 -1.19084,-3.18428 -2.35048,-4.42636 -1.15955,-1.24296 -2.62667,-2.15755 -4.25361,-2.65132 -1.62579,-0.49372 -3.35427,-0.54896 -5.00881,-0.16019 -49.89914,11.52114 -102.17308,7.15448 -149.47081,-12.48497 -47.29737,-19.63859 -87.29283,-53.58461 -114.36195,-97.06392 -1.3545,-2.15893 -3.51349,-3.69312 -5.99762,-4.26086 -2.48419,-0.56899 -5.09511,-0.12678 -7.25388,1.22787 -2.15835,1.35505 -3.69203,3.51453 -4.2605,5.99938 -0.56835,2.48398 -0.1263,5.09504 1.22842,7.25418 22.10011,35.31875 52.15972,64.97937 87.76743,86.60432 58.96517,35.65732 129.56771,46.95257 196.71211,31.47037 2.04197,-0.44572 3.88347,-1.5476 5.24171,-3.13649 1.3583,-1.58992 2.15911,-3.58016 2.28143,-5.6679 z M 174.01429,427.63787 c 0.0442,-1.09279 -0.0739,-2.18648 -0.34724,-3.24615 -1.43194,-4.88412 -2.63676,-10.04305 -3.73516,-15.05163 -0.50961,-2.50863 -1.99644,-4.71487 -4.13066,-6.1282 -2.13402,-1.41346 -4.7449,-1.92263 -7.25348,-1.41315 -2.5087,0.50971 -4.71457,1.99682 -6.12759,4.13114 -1.41383,2.13481 -1.92227,4.74615 -1.4125,7.2549 1.18185,5.55096 2.46874,11.10871 4.08398,16.46418 0.45653,1.63989 1.34114,3.12853 2.56306,4.31213 1.22176,1.18423 2.73706,2.02176 4.38958,2.42686 1.65227,0.40511 3.38337,0.36249 5.01405,-0.12357 1.91954,-0.51943 3.62636,-1.63169 4.87548,-3.1792 1.249,-1.54738 1.97724,-3.45165 2.07992,-5.43784 z m 35.35933,-187.18203 c 0.12005,-2.06671 -0.42581,-4.11857 -1.5558,-5.85334 -1.12959,-1.73481 -2.78567,-3.06251 -4.72437,-3.78875 -1.93804,-0.72704 -4.05944,-0.81303 -6.05114,-0.24779 -1.99106,0.56497 -3.74982,1.75414 -5.01739,3.39076 -26.83415,35.15178 -42.53138,77.55112 -45.05706,121.70471 -0.45802,7.81657 -0.48549,15.6585 -0.19832,23.52852 0.28264,2.43121 1.47861,4.66614 3.34473,6.25018 1.86564,1.58302 4.26512,2.40056 6.70941,2.28358 2.44419,-0.11602 4.75512,-1.15741 6.46197,-2.91037 1.70693,-1.75385 2.68536,-4.09265 2.73594,-6.53971 -2.09123,-47.63835 12.52091,-94.54246 41.29713,-132.56249 1.22379,-1.49017 1.94319,-3.33082 2.05493,-5.25575 z m 33.97919,-35.19118 c 0.14829,-2.42487 -0.63472,-4.81809 -2.19066,-6.68544 -1.62492,-1.97208 -3.9676,-3.22108 -6.51022,-3.47099 -2.54341,-0.24996 -5.08438,0.51993 -7.06154,2.13786 -4.40466,3.58203 -8.71698,7.5534 -12.92153,11.49296 -1.84263,1.7736 -2.90579,4.20842 -2.95481,6.76413 -0.0492,2.55657 0.92038,5.03082 2.69305,6.87244 1.77251,1.84241 4.20688,2.90584 6.76313,2.9549 2.55644,0.0491 5.02869,-0.91971 6.87126,-2.69341 3.75463,-3.62006 7.72569,-7.17953 11.78773,-10.48413 1.02491,-0.84712 1.86586,-1.89607 2.47172,-3.07979 0.60598,-1.18464 0.96428,-2.48101 1.05187,-3.80853 z m 126.51195,-48.26695 0.056,-0.95679 c -0.10577,-2.55652 -1.21804,-4.97009 -3.09338,-6.71058 -1.87444,-1.74044 -4.36461,-2.6699 -6.92109,-2.58407 -37.25954,1.48763 -73.55078,12.33393 -105.51764,31.53564 -1.74068,1.05516 -3.10429,2.63565 -3.89193,4.51303 -0.78906,1.87727 -0.96232,3.95698 -0.49695,5.93924 0.46556,1.98231 1.5476,3.76711 3.08899,5.09684 1.5414,1.32998 3.46576,2.13754 5.4946,2.30707 2.02894,0.17075 4.06048,-0.3069 5.80092,-1.36265 29.16922,-17.57159 62.32229,-27.46155 96.34981,-28.74137 2.36827,-0.10812 4.61411,-1.09146 6.29947,-2.75834 1.68609,-1.66691 2.69466,-3.90144 2.8306,-6.26855 z m 46.84278,3.2831 c 0.15134,-2.35485 -0.56725,-4.68553 -2.02415,-6.54206 -1.45573,-1.85636 -3.54773,-3.1108 -5.87171,-3.52124 -5.69609,-1.08266 -11.49658,-1.85451 -17.37028,-2.52528 -2.02957,-0.21059 -4.07478,0.22783 -5.84051,1.25098 -1.7656,1.02292 -3.1625,2.57977 -3.98967,4.44547 -0.82739,1.8656 -1.04232,3.94624 -0.615,5.94183 0.42715,1.99558 1.47611,3.80545 2.99442,5.16874 1.5182,1.36323 3.43103,2.21074 5.45992,2.4212 5.345,0.52459 10.66726,1.26851 15.88143,2.2173 2.5067,0.45357 5.09473,-0.10454 7.19142,-1.55171 2.09678,-1.44719 3.53697,-3.66819 4.00256,-6.17339 0.11018,-0.3806 0.1685,-0.77443 0.17416,-1.17072 z m 154.08219,119.29264 c 0.10686,-1.60956 -0.20213,-3.21947 -0.90709,-4.67098 -25.68462,-54.92261 -73.15785,-97.5756 -130.48426,-116.72852 -2.41762,-0.81122 -5.0603,-0.62855 -7.34322,0.5075 -2.28215,1.13592 -4.02228,3.13426 -4.83336,5.55191 -0.81059,2.41748 -0.62839,5.06112 0.50781,7.34395 1.13526,2.28284 3.13347,4.02316 5.55105,4.8342 26.01594,8.83425 49.98237,22.83193 70.45978,41.15191 20.47725,18.32068 37.04793,40.5888 48.71387,65.46688 0.71557,1.53854 1.82637,2.85829 3.21902,3.82718 1.39302,0.96768 3.01845,1.54883 4.70865,1.68334 1.69122,0.13416 3.38747,-0.18166 4.91555,-0.9176 1.57281,-0.69611 2.92081,-1.8152 3.89571,-3.23271 0.97507,-1.41746 1.53675,-3.07808 1.62382,-4.79626 z m 14.33056,41.45971 c 0.0647,-0.91023 -0.0241,-1.82559 -0.27351,-2.70429 -1.03705,-4.25629 -2.18302,-8.61454 -3.44029,-12.88399 -0.46983,-2.06863 -1.60971,-3.92482 -3.24188,-5.28009 -1.6324,-1.35526 -3.6666,-2.13504 -5.78603,-2.21706 -2.1195,-0.0832 -4.20821,0.5384 -5.93953,1.76377 -1.73238,1.22539 -3.01167,2.9891 -3.64019,5.01565 -0.62833,2.02598 -0.57078,4.20388 0.16401,6.19407 1.17674,3.83232 2.2267,7.86833 3.07255,11.78694 0.53908,2.26279 1.87458,4.25839 3.76031,5.61874 1.88736,1.35971 4.20079,1.99738 6.51852,1.7943 2.31652,-0.20206 4.485,-1.2319 6.10603,-2.8994 1.62178,-1.66779 2.59051,-3.86507 2.72858,-6.18696 z m 5.15574,60.59326 c 0.62778,-10.64382 0.50047,-21.31823 -0.38403,-31.94423 -0.22117,-2.5494 -1.44661,-4.90774 -3.40555,-6.55514 -1.95785,-1.64596 -4.49306,-2.44716 -7.04189,-2.22727 -2.54908,0.22124 -4.9083,1.44714 -6.55407,3.40622 -1.647,1.95895 -2.44812,4.49354 -2.227,7.04329 2.55986,31.01144 -1.94872,62.20314 -13.18764,91.21854 -0.92376,2.38253 -0.86326,5.03552 0.16792,7.37246 1.03129,2.33769 2.95038,4.17159 5.33144,5.09451 2.38111,0.92393 5.03497,0.86337 7.37131,-0.16801 2.33651,-1.03047 4.16991,-2.94937 5.09372,-5.33213 8.48754,-21.70743 13.50362,-44.61777 14.86326,-67.88721 z m -26.26489,90.62524 c 0.12678,-2.18054 -0.49047,-4.34239 -1.75094,-6.12709 -1.26054,-1.78457 -3.09022,-3.0899 -5.18867,-3.69975 -2.09702,-0.61025 -4.34168,-0.48967 -6.36183,0.34051 -2.0203,0.83006 -3.70121,2.32329 -4.76345,4.23209 -2.63359,4.64603 -5.34761,9.35427 -8.43991,13.80041 -1.42121,2.12475 -1.94053,4.7296 -1.44337,7.23762 0.49746,2.50704 1.9716,4.71707 4.09622,6.13774 2.12431,1.42158 4.72881,1.94081 7.23565,1.44331 2.50743,-0.49693 4.71623,-1.97179 6.13776,-4.09655 3.31848,-4.88505 6.37755,-9.94175 9.16209,-15.15002 0.77938,-1.23893 1.23176,-2.65633 1.31645,-4.11827 z m -26.93618,37.85992 c 0.0833,-1.45911 -0.162,-2.9184 -0.7153,-4.2718 -0.55325,-1.35255 -1.40178,-2.56497 -2.48372,-3.54807 -1.26059,-1.12709 -2.79707,-1.89953 -4.45324,-2.24159 -1.65597,-0.34094 -3.37353,-0.23616 -4.97623,0.29985 -1.60356,0.5366 -3.03617,1.48856 -4.15315,2.75847 -20.28879,22.99095 -45.55875,41.04941 -73.87884,52.7984 -28.32042,11.74822 -58.95128,16.88041 -89.55331,15.0023 -9.4911,-0.54909 -18.9337,-1.74142 -28.26119,-3.57659 -2.43852,-0.32061 -4.90989,0.29687 -6.90977,1.72829 -1.99996,1.43127 -3.38287,3.57182 -3.8659,5.98392 -0.48304,2.41148 -0.031,4.91926 1.26431,7.01044 1.29426,2.09094 3.33785,3.61339 5.71146,4.25556 10.20801,2.01348 20.54043,3.33716 30.92634,3.96328 33.52899,2.05521 67.08849,-3.56865 98.11662,-16.44248 31.02797,-12.8749 58.71239,-32.66339 80.93979,-57.85401 1.36729,-1.66711 2.16227,-3.73159 2.26461,-5.88689 z m -231.24854,58.7759 c 0.13548,-2.07062 -0.40199,-4.1317 -1.54062,-5.86707 -1.13838,-1.73508 -2.81402,-3.05167 -4.76898,-3.74803 -9.75306,-3.49784 -19.20328,-7.78925 -28.25644,-12.83117 -2.25011,-1.22821 -4.89906,-1.51318 -7.35939,-0.79143 -2.4594,0.72274 -4.53374,2.39466 -5.76274,4.64488 -1.22918,2.25102 -1.51383,4.8997 -0.79136,7.36047 0.7226,2.46076 2.3942,4.53539 4.64461,5.76368 9.99616,5.45334 20.37313,10.17821 31.04987,14.13738 1.59786,0.57938 3.32083,0.72763 4.99318,0.42715 1.67336,-0.30051 3.23716,-1.03731 4.53399,-2.13608 1.29704,-1.09939 2.28059,-2.52089 2.85155,-4.1226 0.26117,-0.90159 0.42488,-1.82802 0.4883,-2.76525 z m -57.97577,-31.98844 c 0.0923,-1.56138 -0.19627,-3.12111 -0.84345,-4.54531 -0.64787,-1.42337 -1.63385,-2.66682 -2.8728,-3.62167 -24.85316,-19.35887 -44.87785,-44.22658 -58.49272,-72.63816 -0.87967,-1.83383 -2.31775,-3.34173 -4.1069,-4.30777 -1.78898,-0.9661 -3.83891,-1.34167 -5.85406,-1.07076 -2.01528,0.26989 -3.89406,1.17108 -5.36573,2.57412 -1.47149,1.40379 -2.46158,3.23804 -2.82742,5.23851 -0.36584,2.00044 -0.0888,4.06544 0.79068,5.89872 14.95687,31.0962 36.86885,58.33644 64.0361,79.60689 1.85891,1.44266 4.18154,2.15559 6.52948,2.0071 2.34705,-0.14854 4.56168,-1.15067 6.22384,-2.81484 1.66219,-1.66542 2.66081,-3.88083 2.80606,-6.2295 z m 65.66894,-9.37074 c 0.099,-2.00652 -0.42615,-3.99558 -1.49963,-5.69371 -1.07371,-1.69881 -2.64597,-3.02464 -4.5002,-3.79767 -25.08294,-10.30929 -47.1768,-26.76358 -64.2412,-47.84313 -17.0654,-21.07974 -28.56001,-46.11562 -33.42488,-72.79936 -0.31829,-2.05473 -1.29187,-3.95231 -2.77394,-5.41127 -1.48209,-1.45758 -3.39567,-2.40032 -5.45425,-2.6851 -2.05966,-0.28603 -4.15728,0.10097 -5.97974,1.10212 -1.82231,1.00003 -3.27455,2.56235 -4.13956,4.45371 -0.86475,1.89064 -1.09713,4.01129 -0.6625,6.04424 5.43662,29.9016 18.31124,57.95796 37.43386,81.57772 19.12128,23.61943 43.88296,42.0502 71.99453,53.58842 1.56496,0.6485 3.27316,0.86952 4.95191,0.64241 1.67769,-0.22694 3.26597,-0.89513 4.60178,-1.93629 1.33702,-1.04105 2.37285,-2.41752 3.00419,-3.98953 0.39496,-1.01951 0.63898,-2.09203 0.72412,-3.18334 z M 211.49344,331.07434 c 0.0916,-2.38794 -0.70598,-4.72644 -2.23693,-6.5618 -1.52969,-1.8357 -3.68823,-3.03937 -6.05304,-3.37856 -2.36561,-0.33928 -4.77467,0.2107 -6.75886,1.54209 -1.9842,1.33149 -3.40579,3.35264 -3.98932,5.66943 -2.5935,11.33698 -4.07796,22.89923 -4.4323,34.5229 -0.0357,2.52399 0.91973,4.96364 2.65887,6.79269 1.73926,1.82917 4.12762,2.90606 6.64969,2.99743 2.5222,0.0907 4.98236,-0.80928 6.84901,-2.50772 1.86674,-1.69838 2.99598,-4.06296 3.14362,-6.58299 0.306,-10.41507 1.63282,-20.77496 3.96222,-30.93111 0.11821,-0.52593 0.18621,-1.06153 0.19935,-1.60123 z M 350.65865,200.37941 c 0.0285,-0.71935 -0.003,-1.43934 -0.0847,-2.15541 -0.26487,-1.67154 -0.96756,-3.24379 -2.03594,-4.55593 -1.06913,-1.31201 -2.46648,-2.31788 -4.05084,-2.91463 -1.58342,-0.59681 -3.2976,-0.76384 -4.966,-0.483 -28.92886,4.72149 -56.27988,16.41356 -79.685,34.06221 -23.40566,17.64974 -42.16889,40.73148 -54.66768,67.24898 -0.8962,1.84751 -1.17966,3.93324 -0.8094,5.953 0.3705,2.01844 1.37548,3.86781 2.86705,5.27742 1.49258,1.40935 3.3973,2.30631 5.43378,2.55915 2.03726,0.25379 4.10283,-0.1493 5.89507,-1.1505 1.79212,-1.0007 3.21897,-2.54826 4.07232,-4.41543 11.1426,-23.70325 27.89484,-44.33881 48.80113,-60.11498 20.90687,-15.77489 45.34473,-26.22142 71.19404,-30.43106 2.15431,-0.33359 4.12887,-1.39888 5.59216,-3.01508 1.46283,-1.61651 2.3263,-3.68757 2.4442,-5.86474 z m 51.19233,-0.66648 c 0.11981,-2.42172 -0.66887,-4.8031 -2.2062,-6.67743 -1.53733,-1.8746 -3.71867,-3.11145 -6.11683,-3.46851 -4.69088,-0.70696 -9.60178,-1.10041 -14.31781,-1.37684 -2.57338,-0.15086 -5.13704,-0.3011 -7.61133,-0.34096 -2.03997,-0.0281 -4.03833,0.59036 -5.70547,1.76679 -1.66714,1.17656 -2.92011,2.85151 -3.57757,4.78355 -0.65756,1.93204 -0.68699,4.02352 -0.0831,5.97333 0.60374,1.94974 1.80909,3.65821 3.4432,4.88135 1.63417,1.22166 3.61427,1.89554 5.65456,1.92416 2.25395,0.0267 4.50237,0.15852 6.85551,0.29642 4.28554,0.25121 8.6641,0.71868 12.81588,1.28873 1.68506,0.23893 3.40409,0.0275 4.9805,-0.61243 1.57717,-0.64097 2.95647,-1.68825 3.99819,-3.03477 1.04051,-1.3463 1.70745,-2.94415 1.93092,-4.63171 -0.0833,-0.24854 -0.10426,-0.51353 -0.0603,-0.77165 z m 141.43687,124.26369 c 0.0419,-1.05843 -0.0788,-2.11771 -0.35348,-3.14088 -7.92251,-28.74173 -22.81039,-55.09117 -43.34028,-76.70696 -20.52968,-21.61688 -46.07558,-37.84117 -74.36776,-47.23157 -2.43143,-0.79794 -5.08409,-0.59667 -7.36726,0.55877 -2.28404,1.15574 -4.01684,3.17359 -4.81494,5.60564 -0.79831,2.43298 -0.59645,5.08479 0.55866,7.36935 1.15543,2.28368 3.17333,4.01759 5.60495,4.8149 25.25903,8.36879 48.06679,22.84488 66.39255,42.14073 18.32564,19.29595 31.60871,42.82098 38.66668,68.48008 0.44275,1.63507 1.31161,3.12316 2.51753,4.31322 1.20503,1.19012 2.70455,2.03922 4.34421,2.46076 1.64087,0.42169 3.36309,0.40158 4.99312,-0.0594 1.96706,-0.45973 3.7309,-1.54973 5.02362,-3.10119 1.29259,-1.55218 2.04506,-3.48521 2.1424,-5.50322 z m 6.03043,45.66776 0.0313,-0.53594 c -0.0165,-5.3224 -0.24317,-10.64276 -0.67839,-15.9476 -0.22071,-2.54942 -1.44674,-4.90808 -3.40547,-6.55515 -1.95786,-1.64604 -4.49274,-2.4474 -7.04156,-2.22744 -2.54936,0.22129 -4.90869,1.44738 -6.55458,3.4064 -1.64682,1.95883 -2.44798,4.49341 -2.22685,7.04284 0.3645,4.75446 0.62443,9.49309 0.56786,14.22283 -0.0403,2.53589 0.91922,4.98943 2.67011,6.82405 1.75164,1.83458 4.15602,2.9075 6.69127,2.98627 2.53404,0.0776 5.00079,-0.84547 6.86115,-2.56906 1.86049,-1.72383 2.969,-4.11282 3.08505,-6.6472 z m -2.72035,30.04341 c 0.078,-2.41448 -0.75823,-4.77135 -2.33662,-6.60064 -1.57832,-1.82826 -3.78955,-2.9977 -6.18954,-3.27377 -2.39995,-0.27589 -4.8177,0.36096 -6.77009,1.78359 -1.95247,1.4225 -3.30063,3.52953 -3.77343,5.89811 -5.39684,30.16241 -19.3464,58.14907 -40.18242,80.61225 -1.66774,1.89157 -2.53339,4.36083 -2.40939,6.87957 0.12411,2.51869 1.2272,4.8925 3.07247,6.6106 1.84571,1.7181 4.29081,2.64849 6.81211,2.592 2.52004,-0.0567 4.9222,-1.09691 6.68862,-2.89604 23.31872,-25.1797 38.92212,-56.53809 44.9463,-90.3272 0.1074,-0.41708 0.16777,-0.84464 0.17982,-1.27623 z m -65.53606,106.20952 c 0.15878,-2.46779 -0.63704,-4.9049 -2.22785,-6.79718 -1.59204,-1.8925 -3.85592,-3.09766 -6.31435,-3.36074 -2.45914,-0.26297 -4.92646,0.43513 -6.88226,1.94778 -3.82689,2.89583 -7.96314,5.65844 -12.00023,8.21552 -1.73107,1.06787 -3.07955,2.65644 -3.85306,4.53703 -0.77255,1.8805 -0.9299,3.95843 -0.45041,5.93445 0.48055,1.97623 1.5743,3.74996 3.12338,5.06584 1.54978,1.31693 3.47701,2.10947 5.50395,2.263 2.02794,0.15331 4.05237,-0.33759 5.78315,-1.40542 4.57308,-2.8523 9.15847,-5.91492 13.43106,-9.20698 1.14475,-0.82767 2.08702,-1.9041 2.75523,-3.14874 0.66803,-1.24446 1.04441,-2.62502 1.10237,-4.03686 z m -41.42622,23.04198 c 0.0532,-1.36491 -0.16174,-2.72742 -0.62879,-4.01152 -0.9411,-2.36702 -2.77425,-4.27357 -5.10285,-5.30772 -2.32874,-1.03313 -4.97241,-1.11307 -7.35902,-0.22303 -21.43372,8.29046 -44.40685,11.85652 -67.34511,10.45353 -6.55023,-0.39915 -13.0711,-1.17804 -19.53207,-2.32574 -2.44072,-0.27032 -4.89389,0.39765 -6.85994,1.8683 -1.96637,1.47077 -3.3,3.63727 -3.72845,6.05446 -0.4288,2.41832 0.0788,4.91051 1.41922,6.96797 1.34059,2.057 3.41512,3.52851 5.79979,4.11235 7.19656,1.29199 14.46392,2.15663 21.76282,2.59122 25.67086,1.58411 51.38371,-2.40765 75.36626,-11.70173 1.73943,-0.65549 3.25132,-1.80439 4.34998,-3.3049 1.0987,-1.50038 1.73726,-3.2881 1.83738,-5.14563 z M 309.75946,480.30395 c 0.10563,-1.73265 -0.25789,-3.46295 -1.05641,-5.00433 -0.79931,-1.54171 -2.0022,-2.83721 -3.47968,-3.7485 -8.7338,-5.36395 -16.74345,-11.82895 -23.83058,-19.23455 -1.77268,-1.84156 -4.20696,-2.90617 -6.76319,-2.95474 -2.55606,-0.0503 -5.02926,0.9205 -6.87136,2.6932 -1.84225,1.77375 -2.90546,4.20849 -2.9548,6.76413 -0.049,2.55659 0.92064,5.03093 2.69334,6.87242 8.18203,8.5527 17.42187,16.02762 27.49379,22.24316 2.17,1.34763 4.78705,1.78286 7.27628,1.20879 2.48938,-0.57318 4.65326,-2.10905 6.01538,-4.26997 0.82096,-1.38034 1.31609,-2.93152 1.44635,-4.53322 z m -46.04087,-48.58904 c 0.12207,-1.82188 -0.29257,-3.64049 -1.2009,-5.22598 -10.83349,-19.83587 -15.8319,-42.34057 -14.41604,-64.89903 1.28863,-21.90392 8.50178,-43.05276 20.8629,-61.18069 1.21743,-1.68838 1.85909,-3.72549 1.82925,-5.80671 -0.0286,-2.08126 -0.72729,-4.09976 -1.99153,-5.75334 -1.26426,-1.65401 -3.02737,-2.85771 -5.02743,-3.43285 -2.00045,-0.57427 -4.13447,-0.49017 -6.08275,0.24161 -1.94924,0.73038 -3.61144,2.07028 -4.74101,3.81861 -14.59327,21.32652 -23.00897,46.27937 -24.31302,72.08946 -1.30397,25.80971 4.55384,51.48385 16.9234,74.17292 1.22959,2.24273 3.29661,3.91048 5.74871,4.63793 2.45129,0.72735 5.0933,0.45792 7.34703,-0.75021 1.4554,-0.75953 2.68955,-1.88434 3.57955,-3.26443 0.89022,-1.38036 1.40655,-2.96774 1.49841,-4.60794 z m 41.25794,-170.39059 c 0.135,-2.40959 -0.64308,-4.78426 -2.17252,-6.65079 -1.5279,-1.86774 -3.70308,-3.09536 -6.09148,-3.44085 -2.3881,-0.34444 -4.82165,0.21757 -6.81619,1.57527 -4.52829,3.05254 -8.85885,6.38646 -12.96778,9.9829 -1.93501,1.66845 -3.13013,4.03983 -3.31865,6.58854 -0.188,2.54809 0.643,5.0689 2.31099,7.0043 1.66811,1.93569 4.03916,3.13028 6.5863,3.31897 2.54775,0.18826 5.06925,-0.64265 7.00446,-2.31123 3.5464,-3.07347 7.26608,-5.9421 11.13911,-8.59229 1.23922,-0.83568 2.27024,-1.9468 3.01225,-3.24402 0.74135,-1.29897 1.17483,-2.75003 1.26617,-4.24327 z m 120.30373,-13.90636 c 0.11613,-2.05168 -0.42451,-4.08802 -1.53876,-5.81423 -1.11496,-1.72613 -2.7487,-3.05461 -4.66545,-3.79489 -30.99744,-11.93676 -65.24574,-12.49829 -96.61766,-1.58279 -2.41459,0.85692 -4.39172,2.63897 -5.49377,4.9516 -1.10227,2.31337 -1.2399,4.97148 -0.38331,7.38604 0.85579,2.41481 2.63752,4.39335 4.95072,5.49448 2.31208,1.10257 4.97064,1.24103 7.38513,0.38485 27.05544,-9.36836 56.56814,-8.89339 83.30832,1.34037 2.38154,0.91427 5.03106,0.84873 7.36538,-0.18088 2.33453,-1.02963 4.16852,-2.94302 5.09967,-5.31938 0.30779,-0.9284 0.50525,-1.88943 0.59028,-2.86461 z m 40.95242,25.50855 c 0.089,-1.43418 -0.13907,-2.87002 -0.67429,-4.20322 -0.53454,-1.33318 -1.35975,-2.53063 -2.41617,-3.50466 -4.00284,-3.68511 -8.21319,-7.13733 -12.61198,-10.33965 -2.07899,-1.41416 -4.62986,-1.96114 -7.10629,-1.52162 -2.47559,0.43864 -4.6832,1.82888 -6.14957,3.87237 -1.4655,2.04263 -2.07507,4.58051 -1.69836,7.0663 0.37741,2.48662 1.71175,4.72875 3.71753,6.24514 3.81703,2.72651 7.44949,5.70427 10.87167,8.91279 1.90609,1.70921 4.40791,2.6038 6.96498,2.49152 2.55708,-0.1123 4.97092,-1.22158 6.72013,-3.09103 1.37875,-1.70974 2.21313,-3.79523 2.39511,-5.98483 z m 42.26068,103.92582 c 1.8457,-30.50712 -6.38634,-60.79134 -23.42188,-86.16462 -1.42791,-2.12001 -3.64173,-3.58716 -6.15141,-4.07602 -2.50821,-0.48886 -5.11062,0.0392 -7.23046,1.46759 -2.11967,1.42907 -3.58642,3.64334 -4.07537,6.15205 -0.48869,2.50876 0.0394,5.1117 1.46736,7.23152 17.68538,26.63738 24.19589,59.19493 18.1137,90.58645 -0.48947,2.50792 0.0385,5.10977 1.46562,7.22965 1.42699,2.11896 3.63896,3.58595 6.14645,4.07475 2.50752,0.48967 5.10889,-0.0374 7.22758,-1.46484 2.11859,-1.42738 3.58534,-3.64068 4.07504,-6.14841 1.21885,-6.23506 2.01475,-12.54586 2.38337,-18.88812 z m -11.79124,47.24374 c 0.13066,-2.24742 -0.527,-4.47199 -1.8595,-6.28711 -1.3317,-1.81449 -3.25737,-3.1072 -5.44073,-3.65582 -2.1833,-0.54747 -4.49115,-0.31545 -6.52261,0.65557 -2.03027,0.97066 -3.66005,2.62142 -4.60503,4.66467 -3.88088,8.31794 -8.66526,16.18278 -14.26601,23.45311 -1.25553,1.60554 -1.97161,3.56717 -2.04384,5.60394 -0.0734,2.03599 0.50224,4.04435 1.64066,5.73367 1.13828,1.69011 2.78193,2.97698 4.69628,3.6758 1.91463,0.69783 4.00079,0.77205 5.96025,0.21192 1.95838,-0.56006 3.69009,-1.72702 4.94576,-3.3323 6.5172,-8.42631 12.06051,-17.56381 16.52245,-27.23776 0.56643,-1.07951 0.89148,-2.26913 0.95303,-3.48681 z m -38.27462,48.05356 c 0.1486,-2.32034 -0.55412,-4.61761 -1.98344,-6.45247 -1.57911,-2.01274 -3.89371,-3.31949 -6.43363,-3.63074 -2.53984,-0.31009 -5.10129,0.39912 -7.11895,1.97236 -23.13049,18.03045 -52.05217,27.03501 -81.32858,25.32091 -9.45426,-0.52308 -18.81066,-2.18929 -27.86312,-4.96446 -2.45014,-0.72732 -5.09176,-0.4521 -7.33831,0.76605 -2.24746,1.21812 -3.92041,3.28203 -4.64764,5.73177 -0.72729,2.45062 -0.452,5.0925 0.76587,7.34031 1.21804,2.24687 3.28082,3.92017 5.73094,4.64758 10.50583,3.1608 21.35018,5.05983 32.3052,5.65676 33.91719,2.00216 67.42913,-8.41405 94.2324,-29.29763 1.07097,-0.85992 1.9488,-1.93559 2.5761,-3.1582 0.62757,-1.22195 0.99016,-2.56204 1.06478,-3.93448 z"
     sodipodi:nodetypes="cccccccccccccccccccccccccccccccccccccccccccccccccccccccccccccccccccccccccccccccccccccccccccccccccccccccccccccccccccccccccccccccccccccccccccccccccccccccccccccccccccccccccccccccccccccccccccccccccccccccccccccccccccccccccccccccccccccccccccccccccccccccccccccccccccccccccccccccccccccccccccccccccccccccccccccccccccccccccccccccccccccccccccccccccccccccccccccccccccccccccccccccccccccccccccccccccccccccccccccccccccccccccccccccccccccccccccccccccccccccccccccccccccccccccccccccccccccc" />
</svg>
